<svg xmlns="http://www.w3.org/2000/svg" viewBox="0 0 64 64">
  <defs>
    <linearGradient id="cloud" x1="12" y1="15" x2="51" y2="50" gradientUnits="userSpaceOnUse">
      <stop stop-color="#31d1bf"/>
      <stop offset="1" stop-color="#08796f"/>
    </linearGradient>
    <linearGradient id="star" x1="42" y1="8" x2="52" y2="24" gradientUnits="userSpaceOnUse">
      <stop stop-color="#ffe36a"/>
      <stop offset="1" stop-color="#ffb300"/>
    </linearGradient>
  </defs>

  <path fill="url(#cloud)" d="M17 48h29.5a11.5 11.5 0 0 0 1.1-22.9A17.2 17.2 0 0 0 15 21.8 13.2 13.2 0 0 0 17 48Z"/>
  <path fill="none" stroke="#ffc857" stroke-linecap="round" stroke-width="3.5" d="M9 33C13 14 35 5 51 15"/>

  <g>
    <path fill="url(#star)" d="m50 8.5 2.1 5 5.4.5-4.1 3.5 1.3 5.3-4.7-2.9-4.7 2.9 1.3-5.3-4.1-3.5 5.4-.5Z"/>
    <animateTransform attributeName="transform" type="rotate" from="0 32 32" to="360 32 32" dur="5s" repeatCount="indefinite"/>
  </g>
</svg>
